<?xml version="1.0" encoding="UTF-8" standalone="no"?>
<svg width="16px" height="16px" xmlns="http://www.w3.org/2000/svg" version="1.1">
    <title>047 Genius2</title>
    <description>Created with Sketch (http://www.bohemiancoding.com/sketch)</description>
    <defs>
        <linearGradient id="gradient-1" x1="50%" y1="0%" x2="50%" y2="100%">
            <stop offset="0%" style="stop-color:rgb(255,255,255); stop-opacity:100"></stop>
            <stop offset="100%" style="stop-color:rgb(0,0,0); stop-opacity:100"></stop>
        </linearGradient>
        <linearGradient id="gradient-2" x1="50%" y1="0%" x2="50%" y2="100%">
            <stop offset="0%" style="stop-color:rgb(255,255,255); stop-opacity:100"></stop>
            <stop offset="100%" style="stop-color:rgb(0,0,0); stop-opacity:100"></stop>
        </linearGradient>
        <linearGradient id="gradient-3" x1="50%" y1="0%" x2="50%" y2="100%">
            <stop offset="0%" style="stop-color:rgb(255,255,255); stop-opacity:100"></stop>
            <stop offset="100%" style="stop-color:rgb(0,0,0); stop-opacity:100"></stop>
        </linearGradient>
        <radialGradient id="gradient-4" cx="50%" cy="0%" fx="50%" fy="0%" r="100%">
            <stop offset="0%" style="stop-color:rgb(255,255,255); stop-opacity:100"></stop>
            <stop offset="49%" style="stop-color:rgb(139,139,139); stop-opacity:100"></stop>
            <stop offset="49%" style="stop-color:rgb(104,104,104); stop-opacity:100"></stop>
            <stop offset="100%" style="stop-color:rgb(157,157,157); stop-opacity:100"></stop>
        </radialGradient>
        <linearGradient id="gradient-5" x1="50%" y1="0%" x2="50%" y2="100%">
            <stop offset="0%" style="stop-color:rgb(255,255,255); stop-opacity:100"></stop>
            <stop offset="100%" style="stop-color:rgb(0,0,0); stop-opacity:100"></stop>
        </linearGradient>
        <linearGradient id="gradient-6" x1="50%" y1="0%" x2="50%" y2="100%">
            <stop offset="0%" style="stop-color:rgb(255,255,255); stop-opacity:100"></stop>
            <stop offset="100%" style="stop-color:rgb(0,0,0); stop-opacity:100"></stop>
        </linearGradient>
        <radialGradient id="gradient-7" cx="50%" cy="0%" fx="50%" fy="0%" r="100%">
            <stop offset="0%" style="stop-color:rgb(255,255,255); stop-opacity:100"></stop>
            <stop offset="49%" style="stop-color:rgb(139,139,139); stop-opacity:100"></stop>
            <stop offset="49%" style="stop-color:rgb(104,104,104); stop-opacity:100"></stop>
            <stop offset="100%" style="stop-color:rgb(157,157,157); stop-opacity:100"></stop>
        </radialGradient>
        <linearGradient id="gradient-8" x1="50%" y1="0%" x2="50%" y2="100%">
            <stop offset="0%" style="stop-color:rgb(255,255,255); stop-opacity:100"></stop>
            <stop offset="100%" style="stop-color:rgb(0,0,0); stop-opacity:100"></stop>
        </linearGradient>
        <linearGradient id="gradient-9" x1="50%" y1="0%" x2="50%" y2="100%">
            <stop offset="0%" style="stop-color:rgb(255,255,255); stop-opacity:100"></stop>
            <stop offset="100%" style="stop-color:rgb(0,0,0); stop-opacity:100"></stop>
        </linearGradient>
        <radialGradient id="gradient-10" cx="50%" cy="0%" fx="50%" fy="0%" r="100%">
            <stop offset="0%" style="stop-color:rgb(255,255,255); stop-opacity:100"></stop>
            <stop offset="49%" style="stop-color:rgb(139,139,139); stop-opacity:100"></stop>
            <stop offset="49%" style="stop-color:rgb(104,104,104); stop-opacity:100"></stop>
            <stop offset="100%" style="stop-color:rgb(157,157,157); stop-opacity:100"></stop>
        </radialGradient>
        <linearGradient id="gradient-11" x1="50%" y1="0%" x2="50%" y2="100%">
            <stop offset="0%" style="stop-color:rgb(255,255,255); stop-opacity:100"></stop>
            <stop offset="100%" style="stop-color:rgb(0,0,0); stop-opacity:100"></stop>
        </linearGradient>
        <linearGradient id="gradient-12" x1="50%" y1="0%" x2="50%" y2="100%">
            <stop offset="0%" style="stop-color:rgb(255,255,255); stop-opacity:100"></stop>
            <stop offset="100%" style="stop-color:rgb(0,0,0); stop-opacity:100"></stop>
        </linearGradient>
    </defs>
    <g fill="rgb(215,215,215)" id="Icons with numbers">
        <g fill="rgb(215,215,215)" id="Stripes Vertical copy">
            <g stroke="rgb(255,255,255)" stroke-width="1" fill="none" id="Rectangle 180 copy 5"></g>
            <path id="Rectangle 180 copy 5" d="M0,-160 L0,560 L16,560 L16,-160 L0,-160 Z M0,-160" stroke="rgb(255,255,255)" stroke-width="1" fill="none"></path>
            <path id="Rectangle 180 copy 5 decoration" d="" stroke="rgb(255,255,255)" stroke-width="1" fill="none"></path>
        </g>
        <g fill="rgb(212,212,212)" id="Genius2"></g>
        <path id="Genius2" d="M8,16 C6,16 5,12 5,8 C5,3 6,0 8,0 C9,0 11,3 11,8 C11,12 9,16 8,16 Z M8,15 C9,15 10,12 10,8 C10,4 9,1 8,1 C7,1 6,4 6,8 C6,12 7,15 8,15 Z M8,15" fill="rgb(212,212,212)"></path>
        <path id="Genius2 decoration" d="" fill="rgb(212,212,212)"></path>
        <g fill="rgb(212,212,212)" id="Genius2"></g>
        <path id="Genius2" d="M1,12 C0,11 2,7 6,5 C10,2 14,2 14,3 C15,4 13,7 9,10 C6,12 2,13 1,12 Z M2,11 C2,12 5,11 9,9 C12,7 14,4 14,4 C13,3 10,4 7,6 C3,8 1,10 2,11 Z M2,11" fill="rgb(212,212,212)"></path>
        <path id="Genius2 decoration" d="" fill="rgb(212,212,212)"></path>
        <g fill="rgb(212,212,212)" id="Genius2"></g>
        <path id="Genius2" d="M14,12 C14,13 10,12 6,10 C2,7 0,4 1,3 C2,2 6,2 9,5 C13,7 15,11 14,12 Z M14,11 C14,10 12,8 9,6 C5,4 2,3 2,4 C1,4 3,7 7,9 C10,11 13,12 14,11 Z M14,11" fill="rgb(212,212,212)"></path>
        <path id="Genius2 decoration" d="" fill="rgb(212,212,212)"></path>
    </g>
</svg>