<?xml version="1.0" encoding="UTF-8" standalone="no"?>
<svg width="16px" height="16px" xmlns="http://www.w3.org/2000/svg" version="1.1">
    <title>159 Key</title>
    <description>Created with Sketch (http://www.bohemiancoding.com/sketch)</description>
    <defs>
        <linearGradient id="gradient-1" x1="50%" y1="0%" x2="50%" y2="100%">
            <stop offset="0%" style="stop-color:rgb(255,255,255); stop-opacity:100"></stop>
            <stop offset="100%" style="stop-color:rgb(0,0,0); stop-opacity:100"></stop>
        </linearGradient>
        <linearGradient id="gradient-2" x1="50%" y1="0%" x2="50%" y2="100%">
            <stop offset="0%" style="stop-color:rgb(255,255,255); stop-opacity:100"></stop>
            <stop offset="100%" style="stop-color:rgb(0,0,0); stop-opacity:100"></stop>
        </linearGradient>
        <linearGradient id="gradient-3" x1="50%" y1="0%" x2="50%" y2="100%">
            <stop offset="0%" style="stop-color:rgb(255,255,255); stop-opacity:100"></stop>
            <stop offset="100%" style="stop-color:rgb(0,0,0); stop-opacity:100"></stop>
        </linearGradient>
        <radialGradient id="gradient-4" cx="50%" cy="0%" fx="50%" fy="0%" r="100%">
            <stop offset="0%" style="stop-color:rgb(255,255,255); stop-opacity:100"></stop>
            <stop offset="49%" style="stop-color:rgb(139,139,139); stop-opacity:100"></stop>
            <stop offset="49%" style="stop-color:rgb(104,104,104); stop-opacity:100"></stop>
            <stop offset="100%" style="stop-color:rgb(157,157,157); stop-opacity:100"></stop>
        </radialGradient>
        <linearGradient id="gradient-5" x1="50%" y1="0%" x2="50%" y2="100%">
            <stop offset="0%" style="stop-color:rgb(255,255,255); stop-opacity:100"></stop>
            <stop offset="100%" style="stop-color:rgb(0,0,0); stop-opacity:100"></stop>
        </linearGradient>
        <linearGradient id="gradient-6" x1="50%" y1="0%" x2="50%" y2="100%">
            <stop offset="0%" style="stop-color:rgb(255,255,255); stop-opacity:100"></stop>
            <stop offset="100%" style="stop-color:rgb(0,0,0); stop-opacity:100"></stop>
        </linearGradient>
        <linearGradient id="gradient-7" x1="50%" y1="0%" x2="50%" y2="100%">
            <stop offset="0%" style="stop-color:rgb(255,255,255); stop-opacity:100"></stop>
            <stop offset="100%" style="stop-color:rgb(0,0,0); stop-opacity:100"></stop>
        </linearGradient>
    </defs>
    <g fill="rgb(215,215,215)" id="Icons with numbers">
        <g fill="rgb(215,215,215)" id="Stripes Vertical copy">
            <g stroke="rgb(255,255,255)" stroke-width="1" fill="none" id="Rectangle 180 copy 6"></g>
            <path id="Rectangle 180 copy 6" d="M0,-448 L0,272 L16,272 L16,-448 L0,-448 Z M0,-448" stroke="rgb(255,255,255)" stroke-width="1" fill="none"></path>
            <path id="Rectangle 180 copy 6 decoration" d="" stroke="rgb(255,255,255)" stroke-width="1" fill="none"></path>
        </g>
        <g fill="rgb(212,212,212)" id="Rectangle 244"></g>
        <path id="Rectangle 244" d="M1,7 L8,7 C8,5 10,4 12,4 C14,4 16,5 16,8 C16,10 14,12 12,12 C10,12 8,10 8,9 L7,9 L5,10 L4,9 L2,10 L1,9 L0,7 Z M12,7 L12,9 L14,9 L14,7 Z M12,7" fill="rgb(212,212,212)"></path>
        <path id="Rectangle 244 decoration" d="" fill="rgb(212,212,212)"></path>
    </g>
</svg>