<?xml version="1.0" encoding="UTF-8" standalone="no"?>
<svg width="16px" height="16px" xmlns="http://www.w3.org/2000/svg" version="1.1">
    <title>174 Nuclear</title>
    <description>Created with Sketch (http://www.bohemiancoding.com/sketch)</description>
    <defs>
        <linearGradient id="gradient-1" x1="50%" y1="0%" x2="50%" y2="100%">
            <stop offset="0%" style="stop-color:rgb(255,255,255); stop-opacity:100"></stop>
            <stop offset="100%" style="stop-color:rgb(0,0,0); stop-opacity:100"></stop>
        </linearGradient>
        <linearGradient id="gradient-2" x1="50%" y1="0%" x2="50%" y2="100%">
            <stop offset="0%" style="stop-color:rgb(255,255,255); stop-opacity:100"></stop>
            <stop offset="100%" style="stop-color:rgb(0,0,0); stop-opacity:100"></stop>
        </linearGradient>
        <linearGradient id="gradient-3" x1="50%" y1="0%" x2="50%" y2="100%">
            <stop offset="0%" style="stop-color:rgb(255,255,255); stop-opacity:100"></stop>
            <stop offset="100%" style="stop-color:rgb(0,0,0); stop-opacity:100"></stop>
        </linearGradient>
        <radialGradient id="gradient-4" cx="50%" cy="0%" fx="50%" fy="0%" r="100%">
            <stop offset="0%" style="stop-color:rgb(255,255,255); stop-opacity:100"></stop>
            <stop offset="49%" style="stop-color:rgb(139,139,139); stop-opacity:100"></stop>
            <stop offset="49%" style="stop-color:rgb(104,104,104); stop-opacity:100"></stop>
            <stop offset="100%" style="stop-color:rgb(157,157,157); stop-opacity:100"></stop>
        </radialGradient>
        <linearGradient id="gradient-5" x1="50%" y1="0%" x2="50%" y2="100%">
            <stop offset="0%" style="stop-color:rgb(255,255,255); stop-opacity:100"></stop>
            <stop offset="100%" style="stop-color:rgb(0,0,0); stop-opacity:100"></stop>
        </linearGradient>
        <linearGradient id="gradient-6" x1="50%" y1="0%" x2="50%" y2="100%">
            <stop offset="0%" style="stop-color:rgb(255,255,255); stop-opacity:100"></stop>
            <stop offset="100%" style="stop-color:rgb(0,0,0); stop-opacity:100"></stop>
        </linearGradient>
        <linearGradient id="gradient-7" x1="50%" y1="0%" x2="50%" y2="100%">
            <stop offset="0%" style="stop-color:rgb(255,255,255); stop-opacity:100"></stop>
            <stop offset="100%" style="stop-color:rgb(0,0,0); stop-opacity:100"></stop>
        </linearGradient>
        <linearGradient id="gradient-8" x1="50%" y1="0%" x2="50%" y2="100%">
            <stop offset="0%" style="stop-color:rgb(255,255,255); stop-opacity:100"></stop>
            <stop offset="100%" style="stop-color:rgb(0,0,0); stop-opacity:100"></stop>
        </linearGradient>
        <linearGradient id="gradient-9" x1="50%" y1="0%" x2="50%" y2="100%">
            <stop offset="0%" style="stop-color:rgb(255,255,255); stop-opacity:100"></stop>
            <stop offset="100%" style="stop-color:rgb(0,0,0); stop-opacity:100"></stop>
        </linearGradient>
    </defs>
    <g fill="rgb(215,215,215)" id="Icons with numbers">
        <g fill="rgb(215,215,215)" id="Stripes Vertical copy">
            <g stroke="rgb(255,255,255)" stroke-width="1" fill="none" id="Rectangle 180 copy 6"></g>
            <path id="Rectangle 180 copy 6" d="M0,-496 L0,224 L16,224 L16,-496 L0,-496 Z M0,-496" stroke="rgb(255,255,255)" stroke-width="1" fill="none"></path>
            <path id="Rectangle 180 copy 6 decoration" d="" stroke="rgb(255,255,255)" stroke-width="1" fill="none"></path>
        </g>
        <g fill="rgb(0,0,0)" id="Oval 188"></g>
        <path id="Oval 188" d="M4,3 L6,5 C6,5 7,4 7,4 C8,4 9,5 9,5 L11,3 C10,2 9,2 8,2 C6,2 5,2 4,3 Z M14,8 L10,8 C10,8 10,9 9,10 L11,13 C13,11 14,10 14,8 Z M4,13 L6,10 C5,9 5,8 5,8 L2,8 C2,10 2,11 4,13 Z M8,16 C3,16 0,12 0,8 C0,3 3,0 8,0 C12,0 16,3 16,8 C16,12 12,16 8,16 Z M8,10 C9,10 10,9 10,8 C10,6 9,6 8,6 C6,6 6,6 6,8 C6,9 6,10 8,10 Z M8,10" fill="rgb(0,0,0)"></path>
        <path id="Oval 188 decoration" d="" fill="rgb(0,0,0)"></path>
    </g>
</svg>