<?xml version="1.0" encoding="UTF-8" standalone="no"?>
<svg width="16px" height="16px" xmlns="http://www.w3.org/2000/svg" version="1.1">
    <title>233 PagesView3</title>
    <description>Created with Sketch (http://www.bohemiancoding.com/sketch)</description>
    <defs>
        <linearGradient id="gradient-1" x1="50%" y1="0%" x2="50%" y2="100%">
            <stop offset="0%" style="stop-color:rgb(255,255,255); stop-opacity:100"></stop>
            <stop offset="100%" style="stop-color:rgb(0,0,0); stop-opacity:100"></stop>
        </linearGradient>
        <linearGradient id="gradient-2" x1="50%" y1="0%" x2="50%" y2="100%">
            <stop offset="0%" style="stop-color:rgb(255,255,255); stop-opacity:100"></stop>
            <stop offset="100%" style="stop-color:rgb(0,0,0); stop-opacity:100"></stop>
        </linearGradient>
        <linearGradient id="gradient-3" x1="50%" y1="0%" x2="50%" y2="100%">
            <stop offset="0%" style="stop-color:rgb(255,255,255); stop-opacity:100"></stop>
            <stop offset="100%" style="stop-color:rgb(0,0,0); stop-opacity:100"></stop>
        </linearGradient>
        <radialGradient id="gradient-4" cx="50%" cy="0%" fx="50%" fy="0%" r="100%">
            <stop offset="0%" style="stop-color:rgb(255,255,255); stop-opacity:100"></stop>
            <stop offset="49%" style="stop-color:rgb(139,139,139); stop-opacity:100"></stop>
            <stop offset="49%" style="stop-color:rgb(104,104,104); stop-opacity:100"></stop>
            <stop offset="100%" style="stop-color:rgb(157,157,157); stop-opacity:100"></stop>
        </radialGradient>
        <linearGradient id="gradient-5" x1="50%" y1="0%" x2="50%" y2="100%">
            <stop offset="0%" style="stop-color:rgb(255,255,255); stop-opacity:100"></stop>
            <stop offset="100%" style="stop-color:rgb(0,0,0); stop-opacity:100"></stop>
        </linearGradient>
        <linearGradient id="gradient-6" x1="50%" y1="0%" x2="50%" y2="100%">
            <stop offset="0%" style="stop-color:rgb(255,255,255); stop-opacity:100"></stop>
            <stop offset="100%" style="stop-color:rgb(0,0,0); stop-opacity:100"></stop>
        </linearGradient>
        <linearGradient id="gradient-7" x1="50%" y1="0%" x2="50%" y2="100%">
            <stop offset="0%" style="stop-color:rgb(255,255,255); stop-opacity:100"></stop>
            <stop offset="100%" style="stop-color:rgb(0,0,0); stop-opacity:100"></stop>
        </linearGradient>
        <linearGradient id="gradient-8" x1="50%" y1="0%" x2="50%" y2="100%">
            <stop offset="0%" style="stop-color:rgb(255,255,255); stop-opacity:100"></stop>
            <stop offset="100%" style="stop-color:rgb(0,0,0); stop-opacity:100"></stop>
        </linearGradient>
    </defs>
    <g fill="rgb(215,215,215)" id="Icons with numbers">
        <g fill="rgb(215,215,215)" id="Stripes Vertical copy">
            <g stroke="rgb(255,255,255)" stroke-width="1" fill="none" id="Rectangle 180 copy 7"></g>
            <path id="Rectangle 180 copy 7" d="M0,-640 L0,80 L16,80 L16,-640 L0,-640 Z M0,-640" stroke="rgb(255,255,255)" stroke-width="1" fill="none"></path>
            <path id="Rectangle 180 copy 7 decoration" d="" stroke="rgb(255,255,255)" stroke-width="1" fill="none"></path>
        </g>
        <g fill="rgb(0,0,0)" id="Rectangle 16 copy 2"></g>
        <path id="Rectangle 16 copy 2" d="M0,3 C0,1 1,0 3,0 L9,0 C10,0 11,1 11,2 C11,2 11,3 11,3 L7,3 C4,3 3,4 3,7 L3,12 C1,12 0,10 0,9 Z M4,7 C4,5 5,4 7,4 L13,4 C14,4 16,5 16,7 L16,13 C16,14 14,16 13,16 L7,16 C5,16 4,14 4,13 Z M6,7 L6,13 C6,13 6,14 7,14 L13,14 C13,14 14,13 14,13 L14,7 C14,6 13,6 13,6 L7,6 C6,6 6,6 6,7 Z M6,7" fill="rgb(0,0,0)"></path>
        <path id="Rectangle 16 copy 2 decoration" d="" fill="rgb(0,0,0)"></path>
    </g>
</svg>